<?xml version="1.0" encoding="UTF-8" standalone="no"?>
<!-- Created with Inkscape (http://www.inkscape.org/) -->

<svg
   width="16mm"
   height="16mm"
   viewBox="0 0 16 16"
   version="1.1"
   id="svg1"
   xmlns="http://www.w3.org/2000/svg"
   xmlns:svg="http://www.w3.org/2000/svg">
  <defs
     id="defs1" />
  <g
     id="layer1"
     transform="matrix(1.5355533,0,0,1.6961464,-150.48842,-98.225347)"
     style="stroke:#000000;stroke-opacity:1">
    <path
       style="fill:none;fill-opacity:0;stroke:#ffffff;stroke-width:1.17074;stroke-linecap:round;stroke-linejoin:round;stroke-miterlimit:10;stroke-dasharray:none;stroke-dashoffset:0;stroke-opacity:1"
       id="path3"
       d="m 107.6646,-61.866045 c -0.0728,0.516335 -0.24725,0.99716 -0.53652,1.419089 -0.56998,0.831402 -1.5857,1.434123 -3.14761,1.629239 -2.03465,0.254171 -4.000652,-0.763072 -4.719033,-2.679641 -0.68597,-1.353834 -0.321151,-2.9984 0.586611,-3.988569 0.599582,-0.654011 1.741802,-0.194717 2.191912,0.586061 l 0.20398,0.353828 a 2.8999333,2.8999333 30.728855 0 0 2.44045,1.450695 l 1.82687,0.04531 c 0.63962,0.01586 1.24241,0.552195 1.15334,1.183988 z"
       transform="matrix(0.99228344,0,0,-1.0489748,0.7759364,-2.8661236)" />
  </g>
</svg>
