<?xml version="1.0" encoding="UTF-8" standalone="no"?>
<!-- Created with Inkscape (http://www.inkscape.org/) -->

<svg
   width="27"
   height="27"
   viewBox="0 0 7.1437498 7.14375"
   version="1.1"
   id="svg1"
   xmlns="http://www.w3.org/2000/svg"
   xmlns:svg="http://www.w3.org/2000/svg">
  <defs
     id="defs1" />
  <g
     id="layer1">
    <g
       id="path1"
       style="opacity:1">
      <path
         id="path3"
         style="baseline-shift:baseline;display:inline;overflow:visible;vector-effect:none;fill-opacity:0;stroke-linecap:round;stroke-linejoin:round;stroke-miterlimit:10;enable-background:accumulate;stop-color:#000000;stop-opacity:1"
         d="M 1.4836304,0.80046792 A 0.23860097,0.23860097 0 0 0 1.2846761,1.1704712 l 1.6195394,2.4541137 0.010335,1.8319295 A 0.34605047,0.34605047 0 0 0 3.0788818,5.749003 L 3.790983,6.1887694 A 0.20025117,0.20025117 0 0 0 4.095874,6.0265054 L 4.1961262,3.6359537 4.8581013,2.653068 C 4.8261043,2.633395 4.7938293,2.613839 4.7614663,2.594674 4.7081833,2.561966 4.6555087,2.528585 4.6028197,2.494939 4.5785787,2.479458 4.5837827,2.457904 4.6012697,2.455148 c 0.00684,-0.00108 0.015823,6.814e-4 0.025321,0.00672 0.051913,0.03299 0.1036379,0.066524 0.1560628,0.098702 0.032777,0.019408 0.065236,0.038989 0.097669,0.058911 L 5.8353027,1.201477 A 0.25739385,0.25739385 0 0 0 5.621879,0.80046792 H 2.3440429 Z" />
      <path
         id="path4"
         style="baseline-shift:baseline;display:inline;overflow:visible;vector-effect:none;fill:#2f7d32;stroke-linecap:round;stroke-linejoin:round;stroke-miterlimit:10;enable-background:accumulate;stop-color:#000000;stop-opacity:1"
         d="M 3.9315434,3.6251017 3.8359415,5.9060994 3.2168579,5.5236938 c -0.024194,-0.014943 -0.037046,-0.040293 -0.037207,-0.06873 L 3.1677653,3.6230346 C 3.1677624,3.5717098 3.1529105,3.521331 3.1248738,3.4783406 L 1.5311727,1.0645345 H 2.3435262 5.6094766 L 5.0254617,1.9378053 C 4.9463697,2.0560707 5.5591976,2.021894 5.5591976,2.021894 L 6.0549275,1.3497884 C 6.2800852,1.0154225 6.0239541,0.53536783 5.6208455,0.53536783 H 2.3435262 1.4841471 c -0.3862415,0 -0.6323525,0.45845817 -0.4196126,0.78083087 l 1.5761312,2.3890014 0.00982,1.7518311 c 0.00119,0.2101046 0.1101119,0.4073876 0.2888712,0.5177978 L 3.6524902,6.4140787 C 3.9442737,6.594298 4.3471539,6.3800106 4.3614908,6.0373575 l 0.0239,-0.5791636 0.027011,-0.918305" />
    </g>
    <g
       id="path2"
       style="opacity:1;stroke-width:0.264583;stroke-dasharray:none">
      <path
         id="path5"
         style="baseline-shift:baseline;display:inline;overflow:visible;fill-opacity:0;stroke-width:0.264583;stroke-linecap:round;stroke-linejoin:round;stroke-miterlimit:10;stroke-dasharray:none;enable-background:accumulate;stop-color:#000000;stop-opacity:1"
         d="M 5.2079508,1.7885213 A 1.0583333,1.0583333 0 0 0 4.1496175,2.8468546 1.0583333,1.0583333 0 0 0 5.2079508,3.9051879 1.0583333,1.0583333 0 0 0 6.2662841,2.8468546 1.0583333,1.0583333 0 0 0 5.2079508,1.7885213 Z M 4.6038533,2.4546305 c 0.00643,-3.031e-4 0.014426,0.00195 0.022738,0.00723 0.051913,0.03299 0.1036379,0.066524 0.1560628,0.098702 0.077458,0.045865 0.1539747,0.093043 0.2294434,0.1421102 0.048628,0.032522 0.095381,0.067202 0.144694,0.098702 0.00448,0.00289 0.00896,0.00589 0.013436,0.00878 0.033638,0.021676 0.011933,0.055783 -0.021704,0.034107 -0.00444,-0.00286 -0.009,-0.00592 -0.013436,-0.00879 C 5.0856978,2.8039078 5.0385432,2.7689201 4.9898762,2.7362671 4.9147031,2.6873886 4.8386204,2.6403646 4.7614664,2.5946736 4.7081835,2.5619656 4.6555088,2.5285851 4.6028198,2.4949381 c -0.024241,-0.015481 -0.019037,-0.037035 -0.00155,-0.039791 8.553e-4,-1.348e-4 0.00166,-4.735e-4 0.00258,-5.168e-4 z" />
    </g>
    <path
       style="fill:none;fill-opacity:0.788991;stroke:#2f7d32;stroke-width:0.529167;stroke-linecap:round;stroke-linejoin:round;stroke-miterlimit:10;stroke-dasharray:none;stroke-opacity:1"
       d="m 4.6406517,3.2809455 0.8431576,-0.0093"
       id="path8" />
  </g>
  <ellipse
     style="fill:none;fill-opacity:0.788991;stroke:#2f7d32;stroke-width:0.529167;stroke-linecap:round;stroke-linejoin:round;stroke-miterlimit:10;stroke-dasharray:none;stroke-opacity:1"
     id="path7"
     cx="5.0706425"
     cy="3.2473691"
     rx="1.2493892"
     ry="1.2493893" />
</svg>
