<?xml version="1.0" encoding="UTF-8" standalone="no"?>
<svg width="36" height="36" viewBox="0 0 9.5249999 9.5249999" version="1.1" xmlns="http://www.w3.org/2000/svg">
  <g>
    <path style="fill:none;stroke:#dc2626;stroke-width:0.529167;stroke-linecap:round;stroke-linejoin:round" d="M 2.8903913,8.986739 H 6.3482871 A 0.28757685,0.28757685 137.85221 0 0 6.6344398,8.7277463 L 7.1705633,3.3606802 2.1152402,3.3525955 2.6060022,8.727135 a 0.28557223,0.28557223 42.391327 0 0 0.2843891,0.259604 z" />
    <path style="fill:none;stroke:#dc2626;stroke-width:0.529167;stroke-linecap:round;stroke-linejoin:round" d="m 1.3178081,3.3507312 6.6132949,4.7e-6" />
    <path style="fill:none;stroke:#dc2626;stroke-width:0.529167;stroke-linecap:round;stroke-linejoin:round" d="m 3.9453398,7.9391877 -4.7e-6,-3.7189678" />
    <path style="fill:none;stroke:#dc2626;stroke-width:0.529167;stroke-linecap:round;stroke-linejoin:round" d="m 5.2712327,4.2606434 0.00809,3.6704596" />
    <path style="fill:none;stroke:#dc2626;stroke-width:0.529167;stroke-linecap:round;stroke-linejoin:round" d="m 3.1692073,2.7649717 c 0,0 0.3025133,-0.5572472 0.6242521,-0.8144458 0.081182,-0.064897 0.2383181,-0.1327091 0.3395735,-0.1583063 0.3097526,-0.078305 0.6948674,-0.069575 1.0012137,0.017545 0.081464,0.023167 0.2095728,0.076293 0.2781058,0.12611 0.3329897,0.242051 0.6430973,0.8210126 0.6430973,0.8210126" transform="translate(-0.00808471,0.53725142)" />
  </g>
</svg>
